<svg xmlns="http://www.w3.org/2000/svg" xmlns:xlink="http://www.w3.org/1999/xlink" id="Layer_1" width="360" height="360" x="0" y="0" enable-background="new 0 0 360 360" version="1.1" viewBox="0 0 360 360" xml:space="preserve"><g><path fill="#FFF" d="M181.9,236.7c1.1,0,2.2-0.5,3-1.3L344.7,75.6c-0.5-0.1-1-0.2-1.6-0.2H19.3l160.3,160.3 C180.4,236.5,181.3,236.7,181.9,236.7z"/><path fill="#FFF" d="M194.6,245.1c-3.4,3.4-8,5.3-12.7,5.3c-4.5,0-8.8-1.7-12-4.9L9.5,85v189.4c0,4.4,3.6,8,8,8h325.7 c4.4,0,8-3.6,8-8V88.6L194.6,245.1z"/></g></svg>